<?xml version="1.0" encoding="utf-8"?>
<svg width="102px" height="52px" viewBox="0 0 102 52" version="1.1" xmlns:xlink="http://www.w3.org/1999/xlink" xmlns="http://www.w3.org/2000/svg">
  <g id="svg" transform="translate(1 1)">
    <g id="Group">
      <path d="M16.6646 0L83.3354 0C83.6082 0 83.8808 0.00669107 84.1531 0.0200732C84.4255 0.0334554 84.6974 0.0535125 84.9688 0.0802446C85.2403 0.106977 85.5109 0.140351 85.7806 0.180369C86.0504 0.220387 86.319 0.266999 86.5865 0.320206C86.854 0.373412 87.12 0.433149 87.3846 0.499417C87.6492 0.565685 87.9119 0.638403 88.1729 0.717571C88.4339 0.79674 88.6928 0.882265 88.9496 0.974144C89.2064 1.06602 89.4608 1.16415 89.7127 1.26852C89.9647 1.37288 90.2139 1.48337 90.4604 1.59998C90.7069 1.71658 90.9505 1.83917 91.191 1.96773C91.4316 2.0963 91.6688 2.23069 91.9027 2.3709C92.1366 2.5111 92.3669 2.65697 92.5938 2.80848C92.8206 2.96001 93.0435 3.117 93.2625 3.27946C93.4815 3.44193 93.6965 3.60967 93.9073 3.78269C94.1181 3.9557 94.3246 4.13378 94.5267 4.31694C94.7288 4.50009 94.9262 4.68809 95.119 4.88094C95.3119 5.07378 95.4999 5.27125 95.6831 5.47333C95.8662 5.67542 96.0442 5.88187 96.2173 6.09269C96.3903 6.30351 96.5581 6.51844 96.7204 6.7375C96.8829 6.95656 97.0399 7.17947 97.1915 7.40623C97.343 7.63299 97.4889 7.86334 97.6292 8.09727C97.7693 8.3312 97.9037 8.56843 98.0323 8.80896C98.1608 9.04949 98.2833 9.29302 98.4 9.53956C98.5167 9.7861 98.6272 10.0354 98.7315 10.2873C98.8359 10.5393 98.934 10.7937 99.0258 11.0505C99.1178 11.3072 99.2033 11.5661 99.2825 11.8271C99.3617 12.0881 99.4344 12.3509 99.5006 12.6154C99.5669 12.88 99.6266 13.146 99.6798 13.4135C99.733 13.681 99.7796 13.9496 99.8196 14.2194C99.8596 14.4892 99.893 14.7598 99.9198 15.0312C99.9465 15.3026 99.9665 15.5745 99.98 15.8469C99.9933 16.1193 100 16.3919 100 16.6646L100 33.3354C100 33.6082 99.9933 33.8808 99.98 34.1531C99.9665 34.4255 99.9465 34.6974 99.9198 34.9688C99.893 35.2403 99.8596 35.5109 99.8196 35.7806C99.7796 36.0504 99.733 36.319 99.6798 36.5865C99.6266 36.854 99.5669 37.12 99.5006 37.3846C99.4344 37.6492 99.3617 37.9119 99.2825 38.1729C99.2033 38.4339 99.1178 38.6928 99.0258 38.9496C98.934 39.2064 98.8359 39.4608 98.7315 39.7127C98.6272 39.9647 98.5167 40.2139 98.4 40.4604C98.2833 40.7069 98.1608 40.9505 98.0323 41.191C97.9037 41.4316 97.7693 41.6688 97.6292 41.9027C97.4889 42.1366 97.343 42.3669 97.1915 42.5938C97.0399 42.8206 96.8829 43.0435 96.7204 43.2625C96.5581 43.4815 96.3903 43.6965 96.2173 43.9073C96.0442 44.1181 95.8662 44.3246 95.6831 44.5267C95.4999 44.7287 95.3119 44.9262 95.119 45.119C94.9262 45.3119 94.7288 45.4999 94.5267 45.6831C94.3246 45.8662 94.1181 46.0442 93.9073 46.2173C93.6965 46.3904 93.4815 46.5581 93.2625 46.7206C93.0435 46.883 92.8206 47.0399 92.5938 47.1915C92.3669 47.343 92.1366 47.4889 91.9027 47.6292C91.6688 47.7693 91.4316 47.9037 91.191 48.0323C90.9505 48.1609 90.7069 48.2835 90.4604 48.4C90.2139 48.5167 89.9647 48.6272 89.7127 48.7315C89.4608 48.8359 89.2064 48.934 88.9496 49.0258C88.6928 49.1178 88.4339 49.2033 88.1729 49.2825C87.9119 49.3617 87.6492 49.4344 87.3846 49.5006C87.12 49.5669 86.854 49.6266 86.5865 49.6798C86.319 49.733 86.0504 49.7796 85.7806 49.8196C85.5109 49.8596 85.2403 49.893 84.9688 49.9198C84.6974 49.9465 84.4255 49.9665 84.1531 49.98C83.8808 49.9933 83.6082 50 83.3354 50L16.6646 50C16.3919 50 16.1193 49.9933 15.8469 49.98C15.5745 49.9665 15.3026 49.9465 15.0312 49.9198C14.7598 49.893 14.4892 49.8596 14.2194 49.8196C13.9496 49.7796 13.681 49.733 13.4135 49.6798C13.146 49.6266 12.88 49.5669 12.6154 49.5006C12.3509 49.4344 12.0881 49.3617 11.8271 49.2825C11.5661 49.2033 11.3072 49.1178 11.0505 49.0258C10.7937 48.934 10.5393 48.8359 10.2873 48.7315C10.0354 48.6272 9.7861 48.5167 9.53956 48.4C9.29302 48.2835 9.04949 48.1609 8.80896 48.0323C8.56843 47.9037 8.3312 47.7693 8.09727 47.6292C7.86334 47.4889 7.63299 47.343 7.40623 47.1915C7.17947 47.0399 6.95656 46.883 6.7375 46.7206C6.51844 46.5581 6.30351 46.3904 6.09269 46.2173C5.88187 46.0442 5.67542 45.8662 5.47333 45.6831C5.27125 45.4999 5.07378 45.3119 4.88094 45.119C4.68809 44.9262 4.50009 44.7287 4.31694 44.5267C4.13378 44.3246 3.9557 44.1181 3.78269 43.9073C3.60967 43.6965 3.44193 43.4815 3.27946 43.2625C3.117 43.0435 2.96001 42.8206 2.80848 42.5938C2.65697 42.3669 2.5111 42.1366 2.3709 41.9027C2.23069 41.6688 2.0963 41.4316 1.96773 41.191C1.83917 40.9505 1.71658 40.7069 1.59998 40.4604C1.48337 40.2139 1.37288 39.9647 1.26852 39.7127C1.16415 39.4608 1.06602 39.2064 0.974144 38.9496C0.882265 38.6928 0.79674 38.4339 0.717571 38.1729C0.638403 37.9119 0.565685 37.6492 0.499417 37.3846C0.433149 37.12 0.373412 36.854 0.320206 36.5865C0.266999 36.319 0.220387 36.0504 0.180369 35.7806C0.140351 35.5109 0.106977 35.2403 0.0802446 34.9688C0.0535125 34.6974 0.0334554 34.4255 0.0200732 34.1531C0.00669107 33.8808 0 33.6082 0 33.3354L0 16.6646C0 16.3919 0.00669107 16.1193 0.0200732 15.8469C0.0334554 15.5745 0.0535125 15.3026 0.0802446 15.0312C0.106977 14.7598 0.140351 14.4892 0.180369 14.2194C0.220387 13.9496 0.266999 13.681 0.320206 13.4135C0.373412 13.146 0.433149 12.88 0.499417 12.6154C0.565685 12.3509 0.638403 12.0881 0.717571 11.8271C0.79674 11.5661 0.882265 11.3072 0.974144 11.0505C1.06602 10.7937 1.16415 10.5393 1.26852 10.2873C1.37288 10.0354 1.48337 9.7861 1.59998 9.53956C1.71658 9.29302 1.83917 9.04949 1.96773 8.80896C2.0963 8.56843 2.23069 8.3312 2.3709 8.09727C2.5111 7.86334 2.65697 7.63299 2.80848 7.40623C2.96001 7.17947 3.117 6.95656 3.27946 6.7375C3.44193 6.51844 3.60967 6.30351 3.78269 6.09269C3.9557 5.88187 4.13378 5.67542 4.31694 5.47333C4.50009 5.27125 4.68809 5.07378 4.88094 4.88094C5.07378 4.68809 5.27125 4.50009 5.47333 4.31694C5.67542 4.13378 5.88187 3.9557 6.09269 3.78269C6.30351 3.60967 6.51844 3.44193 6.7375 3.27946C6.95656 3.117 7.17947 2.96001 7.40623 2.80848C7.63299 2.65697 7.86334 2.5111 8.09727 2.3709C8.3312 2.23069 8.56843 2.0963 8.80896 1.96773C9.04949 1.83917 9.29302 1.71658 9.53956 1.59998C9.7861 1.48337 10.0354 1.37288 10.2873 1.26852C10.5393 1.16415 10.7937 1.06602 11.0505 0.974144C11.3072 0.882265 11.5661 0.79674 11.8271 0.717571C12.0881 0.638403 12.3509 0.565685 12.6154 0.499417C12.88 0.433149 13.146 0.373412 13.4135 0.320206C13.681 0.266999 13.9496 0.220387 14.2194 0.180369C14.4892 0.140351 14.7598 0.106977 15.0312 0.0802446C15.3026 0.0535125 15.5745 0.0334554 15.8469 0.0200732C16.1193 0.00669107 16.3919 0 16.6646 0L16.6646 0L16.6646 0Z" id="Rectangle" fill="none" stroke="#FFFFFF" stroke-width="2" />
      <path d="M17.0183 33.0492L17.0183 14.8669L23.9763 14.8669C25.9497 14.8669 27.4248 15.3145 28.4013 16.2097C29.382 17.1008 29.8723 18.2238 29.8723 19.5788C29.8723 20.6856 29.563 21.5563 28.9445 22.1911C28.3301 22.8259 27.5794 23.247 26.6923 23.4545L26.6923 23.6315C27.3393 23.66 27.9598 23.8553 28.5539 24.2175C29.148 24.5755 29.6342 25.0821 30.0126 25.7372C30.3911 26.3923 30.5803 27.1777 30.5803 28.0932C30.5803 29.0372 30.3524 29.8835 29.8967 30.6323C29.441 31.3809 28.7533 31.9709 27.8337 32.4023C26.9182 32.8335 25.7666 33.0492 24.3791 33.0492L17.0183 33.0492L17.0183 33.0492ZM36.5208 14.8669L36.5208 33.0492L33.3104 33.0492L33.3104 14.8669L36.5208 14.8669L36.5208 14.8669ZM69.46 14.8669L69.46 33.0492L72.6704 33.0492L72.6704 28.4655L73.8423 27.2143L78.0171 33.0492L81.8623 33.0492L76.2654 25.2978L81.551 19.414L77.7912 19.414L72.8902 24.8888L72.6704 24.8888L72.6704 14.8669L69.46 14.8669L69.46 14.8669ZM20.3081 22.6L23.5673 22.6C24.4259 22.6 25.142 22.3681 25.7158 21.9042C26.2895 21.4404 26.5764 20.8076 26.5764 20.006C26.5764 19.3021 26.3282 18.7223 25.8318 18.2665C25.3394 17.8108 24.609 17.5829 23.6406 17.5829L20.3081 17.5829L20.3081 22.6L20.3081 22.6ZM42.3106 32.439C43.2871 33.0248 44.4408 33.3177 45.7714 33.3177C47.102 33.3177 48.2576 33.0248 49.2381 32.439C50.2188 31.853 50.9757 31.031 51.5087 29.9731C52.0416 28.9151 52.3081 27.6863 52.3081 26.2865C52.3081 24.8746 52.0416 23.6417 51.5087 22.5878C50.9757 21.5299 50.2188 20.7079 49.2381 20.122C48.2576 19.532 47.102 19.237 45.7714 19.237C44.4408 19.237 43.2871 19.532 42.3106 20.122C41.3341 20.7079 40.5773 21.5299 40.0402 22.5878C39.5071 23.6417 39.2406 24.8746 39.2406 26.2865C39.2406 27.6863 39.5071 28.9151 40.0402 29.9731C40.5773 31.031 41.3341 31.853 42.3106 32.439L42.3106 32.439ZM60.9698 33.3177C59.6148 33.3177 58.449 33.0187 57.4725 32.4206C56.496 31.8224 55.7453 30.9944 55.2204 29.9365C54.6996 28.8744 54.4392 27.6578 54.4392 26.2865C54.4392 24.8949 54.7036 23.6722 55.2325 22.6183C55.7655 21.5604 56.5183 20.7323 57.4908 20.1342C58.4673 19.5361 59.6209 19.237 60.9514 19.237C62.0664 19.237 63.0492 19.4404 63.8996 19.8473C64.754 20.2502 65.4355 20.8198 65.9442 21.5563C66.4528 22.2887 66.7417 23.1493 66.8108 24.1381L63.7408 24.1381C63.6147 23.4789 63.3197 22.9296 62.8558 22.4902C62.3919 22.0466 61.7714 21.8249 60.9942 21.8249C60.0096 21.8249 59.2121 22.2155 58.6017 22.9968C57.9954 23.7739 57.6923 24.8522 57.6923 26.2316C57.6923 27.6232 57.9934 28.7157 58.5956 29.5092C59.1978 30.3026 59.9973 30.6994 60.9942 30.6994C61.7022 30.6994 62.3024 30.498 62.7948 30.0952C63.2871 29.6923 63.6025 29.1226 63.7408 28.3861L66.8108 28.3861C66.7336 29.3505 66.4488 30.203 65.9564 30.9435C65.4681 31.6841 64.8008 32.266 63.9544 32.6892C63.1081 33.1082 62.1133 33.3177 60.9698 33.3177L60.9698 33.3177ZM47.6025 30.15C47.1224 30.5447 46.518 30.7421 45.7896 30.7421C45.0572 30.7421 44.4469 30.5447 43.9585 30.15C43.4703 29.7513 43.1042 29.2142 42.86 28.5387C42.6158 27.8592 42.4937 27.1044 42.4937 26.2743C42.4937 25.4402 42.6158 24.6854 42.86 24.0099C43.1042 23.3304 43.4703 22.7892 43.9585 22.3864C44.4469 21.9836 45.0572 21.7821 45.7896 21.7821C46.518 21.7821 47.1224 21.9836 47.6025 22.3864C48.0867 22.7892 48.4487 23.3304 48.6887 24.0099C48.9289 24.6854 49.049 25.4402 49.049 26.2743C49.049 27.1044 48.9289 27.8592 48.6887 28.5387C48.4487 29.2142 48.0867 29.7513 47.6025 30.15L47.6025 30.15ZM20.3081 30.2965L23.8542 30.2965C25.0505 30.2965 25.9131 30.0686 26.4421 29.6129C26.9711 29.1532 27.2356 28.5611 27.2356 27.8368C27.2356 27.0271 26.9406 26.3476 26.3505 25.7983C25.7646 25.2449 24.961 24.9682 23.9397 24.9682L20.3081 24.9682L20.3081 30.2965L20.3081 30.2965Z" id="Block" fill="#FFFFFF" fill-rule="evenodd" stroke="none" />
    </g>
  </g>
</svg>