<?xml version="1.0" encoding="utf-8"?>
<svg width="64.00049px" height="64px" viewBox="0 0 64.00049 64" version="1.1" xmlns:xlink="http://www.w3.org/1999/xlink" xmlns="http://www.w3.org/2000/svg">
  <g id="Disposition-2">
    <g id="Group-2" transform="translate(37.05094 0.84210527)">
      <path d="M2.999 0L23.9504 0Q24.0977 0 24.2443 0.014441Q24.3909 0.028882 24.5354 0.0576249Q24.6799 0.0863679 24.8209 0.129136Q24.9619 0.171904 25.098 0.228285Q25.2341 0.284667 25.3641 0.354118Q25.494 0.42357 25.6165 0.505423Q25.739 0.587276 25.8529 0.680742Q25.9668 0.774208 26.071 0.878387Q26.1752 0.982566 26.2686 1.09645Q26.3621 1.21034 26.4439 1.33284Q26.5258 1.45535 26.5952 1.58528Q26.6647 1.71522 26.7211 1.85133Q26.7775 1.98745 26.8202 2.12844Q26.863 2.26942 26.8917 2.41392Q26.9205 2.55842 26.9349 2.70505Q26.9494 2.85167 26.9494 2.999L26.9494 57.6326Q26.9494 57.7799 26.9349 57.9265Q26.9205 58.0732 26.8917 58.2177Q26.863 58.3622 26.8202 58.5031Q26.7775 58.6441 26.7211 58.7802Q26.6647 58.9164 26.5952 59.0463Q26.5258 59.1762 26.4439 59.2987Q26.3621 59.4212 26.2686 59.5351Q26.1752 59.649 26.071 59.7532Q25.9668 59.8574 25.8529 59.9508Q25.739 60.0443 25.6165 60.1261Q25.494 60.208 25.3641 60.2775Q25.2341 60.3469 25.098 60.4033Q24.9619 60.4597 24.8209 60.5024Q24.6799 60.5452 24.5354 60.5739Q24.3909 60.6027 24.2443 60.6171Q24.0977 60.6316 23.9504 60.6316L2.999 60.6316Q2.85167 60.6316 2.70505 60.6171Q2.55842 60.6027 2.41392 60.574Q2.26942 60.5452 2.12844 60.5024Q1.98745 60.4597 1.85133 60.4033Q1.71522 60.3469 1.58528 60.2775Q1.45535 60.208 1.33284 60.1261Q1.21034 60.0443 1.09645 59.9508Q0.982566 59.8574 0.878387 59.7532Q0.774208 59.649 0.680742 59.5351Q0.587276 59.4212 0.505423 59.2987Q0.42357 59.1762 0.354118 59.0463Q0.284667 58.9164 0.228285 58.7802Q0.171904 58.6441 0.129136 58.5031Q0.0863679 58.3622 0.0576249 58.2177Q0.028882 58.0732 0.014441 57.9265Q0 57.7799 0 57.6326L0 2.999Q0 2.85167 0.014441 2.70505Q0.028882 2.55842 0.0576249 2.41392Q0.0863679 2.26942 0.129136 2.12844Q0.171904 1.98745 0.228285 1.85133Q0.284667 1.71522 0.354118 1.58528Q0.42357 1.45535 0.505423 1.33284Q0.587276 1.21034 0.680742 1.09645Q0.774208 0.982566 0.878387 0.878387Q0.982566 0.774208 1.09645 0.680742Q1.21034 0.587276 1.33284 0.505423Q1.45535 0.42357 1.58528 0.354118Q1.71522 0.284667 1.85133 0.228285Q1.98745 0.171904 2.12844 0.129136Q2.26942 0.0863679 2.41392 0.0576249Q2.55842 0.028882 2.70505 0.014441Q2.85167 0 2.999 0Z" id="Rectangle-3" fill="#E9E9E9" fill-rule="evenodd" stroke="none" />
      <path d="M26.9494 0L0 63.1579" id="Line-2" fill="none" fill-rule="evenodd" stroke="none" />
    </g>
    <g id="Group">
      <path d="M2.999 0.842105L23.9504 0.842105Q24.0977 0.842105 24.2443 0.856546Q24.3909 0.870987 24.5354 0.89973Q24.6799 0.928473 24.8209 0.971241Q24.9619 1.01401 25.098 1.07039Q25.2341 1.12677 25.3641 1.19622Q25.494 1.26567 25.6165 1.34753Q25.739 1.42938 25.8529 1.52285Q25.9668 1.61631 26.071 1.72049Q26.1752 1.82467 26.2686 1.93856Q26.3621 2.05245 26.4439 2.17495Q26.5258 2.29745 26.5952 2.42739Q26.6647 2.55732 26.7211 2.69344Q26.7775 2.82955 26.8202 2.97054Q26.863 3.11153 26.8917 3.25603Q26.9205 3.40053 26.9349 3.54715Q26.9494 3.69377 26.9494 3.84111L26.9494 58.4747Q26.9494 58.622 26.9349 58.7686Q26.9205 58.9153 26.8917 59.0598Q26.863 59.2043 26.8202 59.3452Q26.7775 59.4862 26.7211 59.6223Q26.6647 59.7585 26.5952 59.8884Q26.5258 60.0183 26.4439 60.1408Q26.3621 60.2633 26.2686 60.3772Q26.1752 60.4911 26.071 60.5953Q25.9668 60.6995 25.8529 60.7929Q25.739 60.8864 25.6165 60.9683Q25.494 61.0501 25.3641 61.1196Q25.2341 61.189 25.098 61.2454Q24.9619 61.3018 24.8209 61.3445Q24.6799 61.3873 24.5354 61.4161Q24.3909 61.4448 24.2443 61.4592Q24.0977 61.4737 23.9504 61.4737L2.999 61.4737Q2.85167 61.4737 2.70505 61.4592Q2.55842 61.4448 2.41392 61.4161Q2.26942 61.3873 2.12844 61.3445Q1.98745 61.3018 1.85133 61.2454Q1.71522 61.189 1.58528 61.1196Q1.45535 61.0501 1.33284 60.9683Q1.21034 60.8864 1.09645 60.7929Q0.982566 60.6995 0.878387 60.5953Q0.774208 60.4911 0.680742 60.3772Q0.587276 60.2633 0.505423 60.1408Q0.42357 60.0183 0.354118 59.8884Q0.284667 59.7585 0.228285 59.6223Q0.171904 59.4862 0.129136 59.3452Q0.0863679 59.2043 0.0576249 59.0598Q0.028882 58.9153 0.014441 58.7686Q0 58.622 0 58.4747L0 3.84111Q0 3.69377 0.014441 3.54715Q0.028882 3.40053 0.0576249 3.25603Q0.0863679 3.11153 0.129136 2.97054Q0.171904 2.82955 0.228285 2.69344Q0.284667 2.55732 0.354118 2.42739Q0.42357 2.29745 0.505423 2.17495Q0.587276 2.05245 0.680742 1.93856Q0.774208 1.82467 0.878387 1.72049Q0.982566 1.61631 1.09645 1.52285Q1.21034 1.42938 1.33284 1.34753Q1.45535 1.26567 1.58528 1.19622Q1.71522 1.12677 1.85133 1.07039Q1.98745 1.01401 2.12844 0.971241Q2.26942 0.928473 2.41392 0.89973Q2.55842 0.870987 2.70505 0.856546Q2.85167 0.842105 2.999 0.842105L2.999 0.842105Z" id="Rectangle-2" fill="#C1C1C1" fill-rule="evenodd" stroke="none" />
      <path d="M26.9494 0L0 63.1579" id="Line" fill="none" fill-rule="evenodd" stroke="none" />
    </g>
  </g>
</svg>