<?xml version="1.0" encoding="utf-8"?>
<svg width="63.999756px" height="64px" viewBox="0 0 63.999756 64" version="1.1" xmlns:xlink="http://www.w3.org/1999/xlink" xmlns="http://www.w3.org/2000/svg">
  <g id="Disposition-2" transform="matrix(1.2675908E-06 1 -1 1.2675908E-06 63.999756 0)">
    <g id="Group-2" transform="translate(37.05078 0.8417969)">
      <path d="M2.999 0L23.9504 0Q24.0977 0 24.2443 0.014441Q24.3909 0.028882 24.5354 0.0576249Q24.6799 0.0863679 24.8209 0.129136Q24.9619 0.171904 25.098 0.228285Q25.2341 0.284667 25.3641 0.354118Q25.494 0.42357 25.6165 0.505423Q25.739 0.587276 25.8529 0.680742Q25.9668 0.774208 26.071 0.878387Q26.1752 0.982566 26.2686 1.09645Q26.3621 1.21034 26.4439 1.33284Q26.5258 1.45535 26.5952 1.58528Q26.6647 1.71522 26.7211 1.85133Q26.7775 1.98745 26.8202 2.12844Q26.863 2.26942 26.8917 2.41392Q26.9205 2.55842 26.9349 2.70505Q26.9494 2.85167 26.9494 2.999L26.9494 57.6326Q26.9494 57.7799 26.9349 57.9265Q26.9205 58.0732 26.8917 58.2177Q26.863 58.3622 26.8202 58.5031Q26.7775 58.6441 26.7211 58.7802Q26.6647 58.9164 26.5952 59.0463Q26.5258 59.1762 26.4439 59.2987Q26.3621 59.4212 26.2686 59.5351Q26.1752 59.649 26.071 59.7532Q25.9668 59.8574 25.8529 59.9508Q25.739 60.0443 25.6165 60.1261Q25.494 60.208 25.3641 60.2775Q25.2341 60.3469 25.098 60.4033Q24.9619 60.4597 24.8209 60.5024Q24.6799 60.5452 24.5354 60.5739Q24.3909 60.6027 24.2443 60.6171Q24.0977 60.6316 23.9504 60.6316L2.999 60.6316Q2.85167 60.6316 2.70505 60.6171Q2.55842 60.6027 2.41392 60.574Q2.26942 60.5452 2.12844 60.5024Q1.98745 60.4597 1.85133 60.4033Q1.71522 60.3469 1.58528 60.2775Q1.45535 60.208 1.33284 60.1261Q1.21034 60.0443 1.09645 59.9508Q0.982566 59.8574 0.878387 59.7532Q0.774208 59.649 0.680742 59.5351Q0.587276 59.4212 0.505423 59.2987Q0.42357 59.1762 0.354118 59.0463Q0.284667 58.9164 0.228285 58.7802Q0.171904 58.6441 0.129136 58.5031Q0.0863679 58.3622 0.0576249 58.2177Q0.028882 58.0732 0.014441 57.9265Q0 57.7799 0 57.6326L0 2.999Q0 2.85167 0.014441 2.70505Q0.028882 2.55842 0.0576249 2.41392Q0.0863679 2.26942 0.129136 2.12844Q0.171904 1.98745 0.228285 1.85133Q0.284667 1.71522 0.354118 1.58528Q0.42357 1.45535 0.505423 1.33284Q0.587276 1.21034 0.680742 1.09645Q0.774208 0.982566 0.878387 0.878387Q0.982566 0.774208 1.09645 0.680742Q1.21034 0.587276 1.33284 0.505423Q1.45535 0.42357 1.58528 0.354118Q1.71522 0.284667 1.85133 0.228285Q1.98745 0.171904 2.12844 0.129136Q2.26942 0.0863679 2.41392 0.0576249Q2.55842 0.028882 2.70505 0.014441Q2.85167 0 2.999 0Z" id="Rectangle-3" fill="#E9E9E9" fill-rule="evenodd" stroke="none" />
      <path d="M26.9494 0L0 63.1579" id="Line-2" fill="none" fill-rule="evenodd" stroke="none" />
    </g>
    <g id="Group">
      <path d="M2.999 0.841797L23.9504 0.841797Q24.0977 0.841797 24.2443 0.856238Q24.3909 0.870679 24.5354 0.899422Q24.6799 0.928165 24.8209 0.970933Q24.9619 1.0137 25.098 1.07008Q25.2341 1.12646 25.3641 1.19591Q25.494 1.26537 25.6165 1.34722Q25.739 1.42907 25.8529 1.52254Q25.9668 1.616 26.071 1.72018Q26.1752 1.82436 26.2686 1.93825Q26.3621 2.05214 26.4439 2.17464Q26.5258 2.29714 26.5952 2.42708Q26.6647 2.55701 26.7211 2.69313Q26.7775 2.82925 26.8202 2.97023Q26.863 3.11122 26.8917 3.25572Q26.9205 3.40022 26.9349 3.54684Q26.9494 3.69347 26.9494 3.8408L26.9494 58.4744Q26.9494 58.6217 26.9349 58.7683Q26.9205 58.915 26.8917 59.0595Q26.863 59.204 26.8202 59.3449Q26.7775 59.4859 26.7211 59.622Q26.6647 59.7582 26.5952 59.8881Q26.5258 60.018 26.4439 60.1405Q26.3621 60.263 26.2686 60.3769Q26.1752 60.4908 26.071 60.595Q25.9668 60.6992 25.8529 60.7926Q25.739 60.8861 25.6165 60.9679Q25.494 61.0498 25.3641 61.1193Q25.2341 61.1887 25.098 61.2451Q24.9619 61.3015 24.8209 61.3442Q24.6799 61.387 24.5354 61.4157Q24.3909 61.4445 24.2443 61.4589Q24.0977 61.4734 23.9504 61.4734L2.999 61.4734Q2.85167 61.4734 2.70505 61.4589Q2.55842 61.4445 2.41392 61.4157Q2.26942 61.387 2.12844 61.3442Q1.98745 61.3015 1.85133 61.2451Q1.71522 61.1887 1.58528 61.1193Q1.45535 61.0498 1.33284 60.9679Q1.21034 60.8861 1.09645 60.7926Q0.982566 60.6992 0.878387 60.595Q0.774208 60.4908 0.680742 60.3769Q0.587276 60.263 0.505423 60.1405Q0.42357 60.018 0.354118 59.8881Q0.284667 59.7582 0.228285 59.622Q0.171904 59.4859 0.129136 59.3449Q0.0863679 59.204 0.0576249 59.0595Q0.028882 58.915 0.014441 58.7683Q0 58.6217 0 58.4744L0 3.8408Q0 3.69347 0.014441 3.54684Q0.028882 3.40022 0.0576249 3.25572Q0.0863679 3.11122 0.129136 2.97023Q0.171904 2.82925 0.228285 2.69313Q0.284667 2.55701 0.354118 2.42708Q0.42357 2.29714 0.505423 2.17464Q0.587276 2.05214 0.680742 1.93825Q0.774208 1.82436 0.878387 1.72018Q0.982566 1.616 1.09645 1.52254Q1.21034 1.42907 1.33284 1.34722Q1.45535 1.26537 1.58528 1.19591Q1.71522 1.12646 1.85133 1.07008Q1.98745 1.0137 2.12844 0.970933Q2.26942 0.928165 2.41392 0.899422Q2.55842 0.870679 2.70505 0.856238Q2.85167 0.841797 2.999 0.841797L2.999 0.841797Z" id="Rectangle-2" fill="#C1C1C1" fill-rule="evenodd" stroke="none" />
      <path d="M26.9494 0L0 63.1579" id="Line" fill="none" fill-rule="evenodd" stroke="none" />
    </g>
  </g>
</svg>