<?xml version="1.0" encoding="utf-8"?>
<svg width="64px" height="64px" viewBox="0 0 64 64" version="1.1" xmlns:xlink="http://www.w3.org/1999/xlink" xmlns="http://www.w3.org/2000/svg">
  <g id="Disposition-1">
    <g id="Group-2" transform="translate(37.05094 0.8421013)">
      <path d="M2.999 0L23.9501 0Q24.0974 0 24.244 0.014441Q24.3906 0.028882 24.5351 0.0576249Q24.6796 0.0863679 24.8206 0.129136Q24.9616 0.171904 25.0977 0.228285Q25.2338 0.284667 25.3638 0.354118Q25.4937 0.42357 25.6162 0.505423Q25.7387 0.587276 25.8526 0.680742Q25.9665 0.774208 26.0707 0.878387Q26.1749 0.982566 26.2683 1.09645Q26.3618 1.21034 26.4436 1.33284Q26.5255 1.45535 26.5949 1.58528Q26.6644 1.71522 26.7208 1.85133Q26.7772 1.98745 26.8199 2.12844Q26.8627 2.26942 26.8914 2.41392Q26.9202 2.55842 26.9346 2.70505Q26.9491 2.85167 26.9491 2.999L26.9491 57.6323Q26.9491 57.7796 26.9346 57.9262Q26.9202 58.0729 26.8914 58.2174Q26.8627 58.3619 26.8199 58.5029Q26.7772 58.6438 26.7208 58.78Q26.6644 58.9161 26.5949 59.046Q26.5255 59.1759 26.4436 59.2984Q26.3618 59.4209 26.2683 59.5348Q26.1749 59.6487 26.0707 59.7529Q25.9665 59.8571 25.8526 59.9506Q25.7387 60.044 25.6162 60.1259Q25.4937 60.2077 25.3638 60.2772Q25.2338 60.3466 25.0977 60.403Q24.9616 60.4594 24.8206 60.5021Q24.6796 60.5449 24.5351 60.5737Q24.3906 60.6024 24.244 60.6168Q24.0974 60.6313 23.9501 60.6313L2.999 60.6313Q2.85167 60.6313 2.70505 60.6168Q2.55842 60.6024 2.41392 60.5737Q2.26942 60.5449 2.12844 60.5022Q1.98745 60.4594 1.85133 60.403Q1.71522 60.3466 1.58528 60.2772Q1.45535 60.2077 1.33284 60.1259Q1.21034 60.044 1.09645 59.9505Q0.982566 59.8571 0.878387 59.7529Q0.774208 59.6487 0.680742 59.5348Q0.587276 59.4209 0.505423 59.2984Q0.42357 59.1759 0.354118 59.046Q0.284667 58.9161 0.228285 58.78Q0.171904 58.6438 0.129136 58.5029Q0.0863679 58.3619 0.0576249 58.2174Q0.028882 58.0729 0.014441 57.9262Q0 57.7796 0 57.6323L0 2.999Q0 2.85167 0.014441 2.70505Q0.028882 2.55842 0.0576249 2.41392Q0.0863679 2.26942 0.129136 2.12844Q0.171904 1.98745 0.228285 1.85133Q0.284667 1.71522 0.354118 1.58528Q0.42357 1.45535 0.505423 1.33284Q0.587276 1.21034 0.680742 1.09645Q0.774208 0.982566 0.878387 0.878387Q0.982566 0.774208 1.09645 0.680742Q1.21034 0.587276 1.33284 0.505423Q1.45535 0.42357 1.58528 0.354118Q1.71522 0.284667 1.85133 0.228285Q1.98745 0.171904 2.12844 0.129136Q2.26942 0.0863679 2.41392 0.0576249Q2.55842 0.028882 2.70505 0.014441Q2.85167 0 2.999 0Z" id="Rectangle-3" fill="#C1C1C1" fill-rule="evenodd" stroke="none" />
      <path d="M26.9491 0L0 63.1576" id="Line-2" fill="none" fill-rule="evenodd" stroke="none" />
    </g>
    <g id="Group">
      <path d="M2.999 0.842101L23.9501 0.842101Q24.0974 0.842101 24.244 0.856542Q24.3906 0.870983 24.5351 0.899726Q24.6796 0.928469 24.8206 0.971237Q24.9616 1.01401 25.0977 1.07039Q25.2338 1.12677 25.3638 1.19622Q25.4937 1.26567 25.6162 1.34752Q25.7387 1.42938 25.8526 1.52284Q25.9665 1.61631 26.0707 1.72049Q26.1749 1.82467 26.2683 1.93856Q26.3618 2.05244 26.4436 2.17495Q26.5255 2.29745 26.5949 2.42738Q26.6644 2.55732 26.7208 2.69343Q26.7772 2.82955 26.8199 2.97054Q26.8627 3.11153 26.8914 3.25603Q26.9202 3.40053 26.9346 3.54715Q26.9491 3.69377 26.9491 3.8411L26.9491 58.4744Q26.9491 58.6217 26.9346 58.7683Q26.9202 58.915 26.8914 59.0595Q26.8627 59.204 26.8199 59.345Q26.7772 59.4859 26.7208 59.6221Q26.6644 59.7582 26.5949 59.8881Q26.5255 60.018 26.4436 60.1405Q26.3618 60.263 26.2683 60.3769Q26.1749 60.4908 26.0707 60.595Q25.9665 60.6992 25.8526 60.7926Q25.7387 60.8861 25.6162 60.968Q25.4937 61.0498 25.3638 61.1193Q25.2338 61.1887 25.0977 61.2451Q24.9616 61.3015 24.8206 61.3442Q24.6796 61.387 24.5351 61.4158Q24.3906 61.4445 24.244 61.459Q24.0974 61.4734 23.9501 61.4734L2.999 61.4734Q2.85167 61.4734 2.70505 61.459Q2.55842 61.4445 2.41392 61.4158Q2.26942 61.387 2.12844 61.3443Q1.98745 61.3015 1.85133 61.2451Q1.71522 61.1887 1.58528 61.1193Q1.45535 61.0498 1.33284 60.968Q1.21034 60.8861 1.09645 60.7926Q0.982566 60.6992 0.878387 60.595Q0.774208 60.4908 0.680742 60.3769Q0.587276 60.263 0.505423 60.1405Q0.42357 60.018 0.354118 59.8881Q0.284667 59.7582 0.228285 59.6221Q0.171904 59.4859 0.129136 59.345Q0.0863679 59.204 0.0576249 59.0595Q0.028882 58.915 0.014441 58.7683Q0 58.6217 0 58.4744L0 3.8411Q0 3.69377 0.014441 3.54715Q0.028882 3.40053 0.0576249 3.25603Q0.0863679 3.11152 0.129136 2.97054Q0.171904 2.82955 0.228285 2.69343Q0.284667 2.55732 0.354118 2.42738Q0.42357 2.29745 0.505423 2.17495Q0.587276 2.05244 0.680742 1.93856Q0.774208 1.82467 0.878387 1.72049Q0.982566 1.61631 1.09645 1.52284Q1.21034 1.42938 1.33284 1.34752Q1.45535 1.26567 1.58528 1.19622Q1.71522 1.12677 1.85133 1.07039Q1.98745 1.01401 2.12844 0.971237Q2.26942 0.928469 2.41392 0.899726Q2.55842 0.870983 2.70505 0.856542Q2.85167 0.842101 2.999 0.842101L2.999 0.842101Z" id="Rectangle-2" fill="#E9E9E9" fill-rule="evenodd" stroke="none" />
      <path d="M26.9491 0L0 63.1576" id="Line" fill="none" fill-rule="evenodd" stroke="none" />
    </g>
  </g>
</svg>